<svg width="23" height="30" viewBox="0 0 23 30" fill="none" xmlns="http://www.w3.org/2000/svg">
<path d="M15.1522 29.8268L3.98747 22.5196H1.26016C0.925944 22.5196 0.605418 22.3335 0.369092 22.0023C0.132767 21.6711 5.81478e-07 21.2219 5.81478e-07 20.7535V10.7147C-0.000158485 10.4827 0.0323191 10.2528 0.0955767 10.0383C0.158834 9.82386 0.251632 9.62896 0.368664 9.46478C0.485696 9.30059 0.624669 9.17035 0.777637 9.08148C0.930606 8.99262 1.09457 8.94688 1.26016 8.94688H3.81921L15.0771 0.219618C15.269 0.0713596 15.4852 -0.00426794 15.7043 0.000185944C15.9234 0.00463982 16.1379 0.0890214 16.3267 0.245018C16.5154 0.401014 16.672 0.623243 16.7808 0.88981C16.8896 1.15638 16.947 1.45809 16.9474 1.76521V28.232C16.9478 28.5296 16.8945 28.8224 16.7925 29.0834C16.6905 29.3443 16.5431 29.5648 16.364 29.7245C16.1848 29.8841 15.9798 29.9777 15.7679 29.9965C15.556 30.0153 15.3442 29.9587 15.1522 29.8319V29.8268ZM19.3684 20.823V10.6435H20.4773C21.1461 10.6435 21.7876 11.0158 22.2607 11.6785C22.7338 12.3412 22.9997 13.24 23 14.1775V17.2873C23.0002 17.7516 22.9351 18.2113 22.8084 18.6402C22.6818 19.0692 22.4961 19.459 22.2619 19.7873C22.0277 20.1157 21.7497 20.3761 21.4437 20.5538C21.1377 20.7316 20.8097 20.823 20.4785 20.823H19.3684Z" fill="white"/>
</svg>
