<svg width="22" height="20" viewBox="0 0 22 20" fill="none" xmlns="http://www.w3.org/2000/svg">
<path d="M2.084 19.6001C1.81029 19.6002 1.53923 19.5491 1.28633 19.4496C1.03343 19.3502 0.80364 19.2044 0.610097 19.0205C0.416553 18.8366 0.263052 18.6183 0.158368 18.3781C0.0536834 18.1378 -0.000131194 17.8803 2.40176e-07 17.6203V5.5477C0.000265374 5.02279 0.219946 4.51946 0.610743 4.14838C1.00154 3.7773 1.53146 3.56885 2.084 3.56885H5.953L6.753 1.79995C6.91322 1.4442 7.17976 1.14092 7.51961 0.927651C7.85946 0.714383 8.2577 0.600497 8.665 0.600098H13.334C13.7419 0.599999 14.1409 0.713635 14.4815 0.926919C14.8221 1.1402 15.0893 1.44376 15.25 1.79995L16.05 3.56885H19.919C20.4711 3.56935 21.0004 3.77806 21.3906 4.14911C21.7808 4.52016 22 5.0232 22 5.5477V17.6203C22.0001 17.8802 21.9464 18.1377 21.8417 18.3779C21.7371 18.6181 21.5837 18.8363 21.3903 19.0202C21.1968 19.204 20.9671 19.3499 20.7144 19.4494C20.4616 19.5489 20.1906 19.6001 19.917 19.6001H2.084Z" fill="#6E7174"/>
<path d="M10.9385 14.4541C12.6644 14.4541 14.0635 13.1249 14.0635 11.4854C14.0635 9.84576 12.6644 8.5166 10.9385 8.5166C9.21259 8.5166 7.81348 9.84576 7.81348 11.4854C7.81348 13.1249 9.21259 14.4541 10.9385 14.4541Z" fill="#6E7174"/>
<path d="M10.9385 15.4439C13.2399 15.4439 15.1055 13.6716 15.1055 11.4853C15.1055 9.29896 13.2399 7.52661 10.9385 7.52661C8.63711 7.52661 6.77148 9.29896 6.77148 11.4853C6.77148 13.6716 8.63711 15.4439 10.9385 15.4439Z" stroke="#F1F3F6" stroke-width="2.083" stroke-miterlimit="10"/>
</svg>
