<svg width="32" height="32" viewBox="0 0 32 32" fill="none" xmlns="http://www.w3.org/2000/svg">
<circle cx="16" cy="16" r="16" fill="#D6D6D6"/>
<mask id="path-2-inside-1_0_5879" fill="white">
<path fill-rule="evenodd" clip-rule="evenodd" d="M9 16.1744L13.4996 21L22 13"/>
</mask>
<path d="M10.6456 14.6399C9.79817 13.7311 8.37442 13.6813 7.46558 14.5288C6.55673 15.3762 6.50695 16.7999 7.35439 17.7088L10.6456 14.6399ZM13.4996 21L11.854 22.5344C12.2622 22.9722 12.8279 23.2293 13.4262 23.2488C14.0244 23.2683 14.6057 23.0487 15.0416 22.6385L13.4996 21ZM23.542 14.6385C24.4469 13.7868 24.4901 12.3629 23.6385 11.458C22.7868 10.5531 21.3629 10.5099 20.458 11.3615L23.542 14.6385ZM7.35439 17.7088L11.854 22.5344L15.1452 19.4656L10.6456 14.6399L7.35439 17.7088ZM15.0416 22.6385L23.542 14.6385L20.458 11.3615L11.9576 19.3615L15.0416 22.6385Z" fill="white" mask="url(#path-2-inside-1_0_5879)"/>
</svg>
